<svg xmlns="http://www.w3.org/2000/svg" xmlns:xlink="http://www.w3.org/1999/xlink" width="840" height="711.3"><rect width="840" height="711.3" rx="5" ry="5" class="a"/><svg y="0%" x="0%"><circle cx="20" cy="20" r="6" fill="#ff5f58"/><circle cx="40" cy="20" r="6" fill="#ffbd2e"/><circle cx="60" cy="20" r="6" fill="#18c132"/></svg><svg height="651.3" viewBox="0 0 80 65.13" width="800" x="15" xmlns="http://www.w3.org/2000/svg" xmlns:xlink="http://www.w3.org/1999/xlink" y="50"><style>@keyframes o{0%{transform:translateX(0)}5.7%{transform:translateX(-80px)}8.3%{transform:translateX(-160px)}10.3%{transform:translateX(-240px)}13.6%{transform:translateX(-320px)}14.9%{transform:translateX(-400px)}17.6%{transform:translateX(-480px)}22.2%{transform:translateX(-560px)}26.8%{transform:translateX(-640px)}28.8%{transform:translateX(-720px)}33.5%{transform:translateX(-800px)}38.1%{transform:translateX(-880px)}40%{transform:translateX(-960px)}44.7%{transform:translateX(-1040px)}49.3%{transform:translateX(-1120px)}53.9%{transform:translateX(-1200px)}58.6%{transform:translateX(-1280px)}60.6%{transform:translateX(-1360px)}65.2%{transform:translateX(-1440px)}69.8%{transform:translateX(-1520px)}74.4%{transform:translateX(-1600px)}76.4%{transform:translateX(-1680px)}81.7%{transform:translateX(-1760px)}83.7%{transform:translateX(-1840px)}85%{transform:translateX(-1920px)}86.4%{transform:translateX(-2000px)}87.7%{transform:translateX(-2080px)}89%{transform:translateX(-2160px)}91.7%{transform:translateX(-2240px)}93%{transform:translateX(-2320px)}94%{transform:translateX(-2400px)}96.7%{transform:translateX(-2480px)}to{transform:translateX(-2560px)}}.a{fill:#282d35}.f,.g,.h,.i{white-space:pre}.f{fill:#66c2cd;font-weight:700}.g,.h,.i{fill:#b9c0cb}.h,.i{fill:#6f7783}.i{fill:#dbab79;font-weight:700}.j,.k,.l,.m{fill:#a8cc8c;white-space:pre}.k,.l,.m{fill:#b9c0cb;font-weight:700}.l,.m{fill:#a8cc8c}.m{fill:#e88388}</style><g font-family="Monaco,Consolas,Menlo,'Bitstream Vera Sans Mono','Powerline Symbols',monospace" font-size="1.67"><defs><symbol id="1"><text y="1.67" class="f">🧪</text><text x="3.006" y="1.67" class="f">The</text><text x="7.014" y="1.67" class="f">Descent</text><text x="15.03" y="1.67" class="f">Curve</text><text x="21.042" y="1.67" class="g">—</text><text x="23.046" y="1.67" class="g">proving</text><text x="31.062" y="1.67" class="g">that</text><text x="36.072" y="1.67" class="g">Educe</text><text x="42.084" y="1.67" class="g">learns</text></symbol><symbol id="2"><text x="3.006" y="1.67" class="g">Model:</text><text x="10.02" y="1.67" class="g">deepseek-chat</text><text x="24.048" y="1.67" class="g">|</text><text x="26.052" y="1.67" class="g">Runs</text><text x="31.062" y="1.67" class="g">per</text><text x="35.07" y="1.67" class="g">family:</text><text x="43.086" y="1.67" class="g">15</text></symbol><symbol id="3"><text y="1.67" class="h">━━━━━━━━━━━━━━━━━━━━━━━━━━━━━━━━━━━━━━━━━━━━━━</text></symbol><symbol id="4"><text y="1.67" class="i">📋</text><text x="3.006" y="1.67" class="i">Task</text><text x="8.016" y="1.67" class="i">family:</text><text x="16.032" y="1.67" class="g">env_system_info</text></symbol><symbol id="5"><text x="3.006" y="1.67" class="g">&quot;Find</text><text x="9.018" y="1.67" class="g">the</text><text x="13.026" y="1.67" class="g">Python</text><text x="20.04" y="1.67" class="g">version</text><text x="28.056" y="1.67" class="g">and</text><text x="32.064" y="1.67" class="g">summarize</text><text x="42.084" y="1.67" class="g">system</text><text x="49.098" y="1.67" class="g">info&quot;</text></symbol><symbol id="6"><text x="3.006" y="1.67" class="g">Run</text><text x="8.016" y="1.67" class="g">1</text><text x="10.02" y="1.67" class="h">│</text><text x="12.024" y="1.67" class="g">9,712</text><text x="18.036" y="1.67" class="g">tokens</text><text x="25.05" y="1.67" class="h">│</text><text x="27.054" y="1.67" class="g">7</text><text x="29.058" y="1.67" class="g">calls</text><text x="35.07" y="1.67" class="h">│</text><text x="37.074" y="1.67" class="j">✓</text><text x="39.078" y="1.67" class="j">correct</text></symbol><symbol id="7"><text x="3.006" y="1.67" class="g">Run</text><text x="8.016" y="1.67" class="g">2</text><text x="10.02" y="1.67" class="h">│</text><text x="12.024" y="1.67" class="g">9,685</text><text x="18.036" y="1.67" class="g">tokens</text><text x="25.05" y="1.67" class="h">│</text><text x="27.054" y="1.67" class="g">7</text><text x="29.058" y="1.67" class="g">calls</text><text x="35.07" y="1.67" class="h">│</text><text x="37.074" y="1.67" class="j">✓</text><text x="39.078" y="1.67" class="j">correct</text></symbol><symbol id="8"><text x="3.006" y="1.67" class="g">Run</text><text x="8.016" y="1.67" class="g">3</text><text x="10.02" y="1.67" class="h">│</text><text x="12.024" y="1.67" class="g">2,458</text><text x="18.036" y="1.67" class="g">tokens</text><text x="25.05" y="1.67" class="h">│</text><text x="27.054" y="1.67" class="g">2</text><text x="29.058" y="1.67" class="g">calls</text><text x="35.07" y="1.67" class="h">│</text><text x="37.074" y="1.67" class="j">✓</text><text x="39.078" y="1.67" class="j">correct</text><text x="48.096" y="1.67" class="i">←</text><text x="50.1" y="1.67" class="i">experience</text><text x="61.122" y="1.67" class="i">reused!</text></symbol><symbol id="9"><text x="3.006" y="1.67" class="g">Run</text><text x="8.016" y="1.67" class="g">4</text><text x="10.02" y="1.67" class="h">│</text><text x="12.024" y="1.67" class="g">9,701</text><text x="18.036" y="1.67" class="g">tokens</text><text x="25.05" y="1.67" class="h">│</text><text x="27.054" y="1.67" class="g">7</text><text x="29.058" y="1.67" class="g">calls</text><text x="35.07" y="1.67" class="h">│</text><text x="37.074" y="1.67" class="j">✓</text><text x="39.078" y="1.67" class="j">correct</text></symbol><symbol id="10"><text x="3.006" y="1.67" class="g">Run</text><text x="8.016" y="1.67" class="g">5</text><text x="10.02" y="1.67" class="h">│</text><text x="12.024" y="1.67" class="g">9,644</text><text x="18.036" y="1.67" class="g">tokens</text><text x="25.05" y="1.67" class="h">│</text><text x="27.054" y="1.67" class="g">7</text><text x="29.058" y="1.67" class="g">calls</text><text x="35.07" y="1.67" class="h">│</text><text x="37.074" y="1.67" class="j">✓</text><text x="39.078" y="1.67" class="j">correct</text></symbol><symbol id="11"><text x="3.006" y="1.67" class="g">Run</text><text x="8.016" y="1.67" class="g">6</text><text x="10.02" y="1.67" class="h">│</text><text x="12.024" y="1.67" class="g">2,412</text><text x="18.036" y="1.67" class="g">tokens</text><text x="25.05" y="1.67" class="h">│</text><text x="27.054" y="1.67" class="g">2</text><text x="29.058" y="1.67" class="g">calls</text><text x="35.07" y="1.67" class="h">│</text><text x="37.074" y="1.67" class="j">✓</text><text x="39.078" y="1.67" class="j">correct</text><text x="48.096" y="1.67" class="i">←</text><text x="50.1" y="1.67" class="i">experience</text><text x="61.122" y="1.67" class="i">reused!</text></symbol><symbol id="12"><text x="3.006" y="1.67" class="g">Run</text><text x="8.016" y="1.67" class="g">7</text><text x="10.02" y="1.67" class="h">│</text><text x="12.024" y="1.67" class="g">9,738</text><text x="18.036" y="1.67" class="g">tokens</text><text x="25.05" y="1.67" class="h">│</text><text x="27.054" y="1.67" class="g">7</text><text x="29.058" y="1.67" class="g">calls</text><text x="35.07" y="1.67" class="h">│</text><text x="37.074" y="1.67" class="j">✓</text><text x="39.078" y="1.67" class="j">correct</text></symbol><symbol id="13"><text x="3.006" y="1.67" class="g">Run</text><text x="8.016" y="1.67" class="g">8</text><text x="10.02" y="1.67" class="h">│</text><text x="12.024" y="1.67" class="g">9,692</text><text x="18.036" y="1.67" class="g">tokens</text><text x="25.05" y="1.67" class="h">│</text><text x="27.054" y="1.67" class="g">7</text><text x="29.058" y="1.67" class="g">calls</text><text x="35.07" y="1.67" class="h">│</text><text x="37.074" y="1.67" class="j">✓</text><text x="39.078" y="1.67" class="j">correct</text></symbol><symbol id="14"><text x="3.006" y="1.67" class="g">Run</text><text x="8.016" y="1.67" class="g">9</text><text x="10.02" y="1.67" class="h">│</text><text x="12.024" y="1.67" class="g">9,655</text><text x="18.036" y="1.67" class="g">tokens</text><text x="25.05" y="1.67" class="h">│</text><text x="27.054" y="1.67" class="g">7</text><text x="29.058" y="1.67" class="g">calls</text><text x="35.07" y="1.67" class="h">│</text><text x="37.074" y="1.67" class="j">✓</text><text x="39.078" y="1.67" class="j">correct</text></symbol><symbol id="15"><text x="3.006" y="1.67" class="g">Run</text><text x="7.014" y="1.67" class="g">10</text><text x="10.02" y="1.67" class="h">│</text><text x="12.024" y="1.67" class="g">9,721</text><text x="18.036" y="1.67" class="g">tokens</text><text x="25.05" y="1.67" class="h">│</text><text x="27.054" y="1.67" class="g">7</text><text x="29.058" y="1.67" class="g">calls</text><text x="35.07" y="1.67" class="h">│</text><text x="37.074" y="1.67" class="j">✓</text><text x="39.078" y="1.67" class="j">correct</text></symbol><symbol id="16"><text x="3.006" y="1.67" class="g">Run</text><text x="7.014" y="1.67" class="g">11</text><text x="10.02" y="1.67" class="h">│</text><text x="12.024" y="1.67" class="g">2,445</text><text x="18.036" y="1.67" class="g">tokens</text><text x="25.05" y="1.67" class="h">│</text><text x="27.054" y="1.67" class="g">2</text><text x="29.058" y="1.67" class="g">calls</text><text x="35.07" y="1.67" class="h">│</text><text x="37.074" y="1.67" class="j">✓</text><text x="39.078" y="1.67" class="j">correct</text><text x="48.096" y="1.67" class="i">←</text><text x="50.1" y="1.67" class="i">experience</text><text x="61.122" y="1.67" class="i">reused!</text></symbol><symbol id="17"><text x="3.006" y="1.67" class="g">Run</text><text x="7.014" y="1.67" class="g">12</text><text x="10.02" y="1.67" class="h">│</text><text x="12.024" y="1.67" class="g">9,688</text><text x="18.036" y="1.67" class="g">tokens</text><text x="25.05" y="1.67" class="h">│</text><text x="27.054" y="1.67" class="g">7</text><text x="29.058" y="1.67" class="g">calls</text><text x="35.07" y="1.67" class="h">│</text><text x="37.074" y="1.67" class="j">✓</text><text x="39.078" y="1.67" class="j">correct</text></symbol><symbol id="18"><text x="3.006" y="1.67" class="g">Run</text><text x="7.014" y="1.67" class="g">13</text><text x="10.02" y="1.67" class="h">│</text><text x="12.024" y="1.67" class="g">9,710</text><text x="18.036" y="1.67" class="g">tokens</text><text x="25.05" y="1.67" class="h">│</text><text x="27.054" y="1.67" class="g">7</text><text x="29.058" y="1.67" class="g">calls</text><text x="35.07" y="1.67" class="h">│</text><text x="37.074" y="1.67" class="j">✓</text><text x="39.078" y="1.67" class="j">correct</text></symbol><symbol id="19"><text x="3.006" y="1.67" class="g">Run</text><text x="7.014" y="1.67" class="g">14</text><text x="10.02" y="1.67" class="h">│</text><text x="12.024" y="1.67" class="g">9,669</text><text x="18.036" y="1.67" class="g">tokens</text><text x="25.05" y="1.67" class="h">│</text><text x="27.054" y="1.67" class="g">7</text><text x="29.058" y="1.67" class="g">calls</text><text x="35.07" y="1.67" class="h">│</text><text x="37.074" y="1.67" class="j">✓</text><text x="39.078" y="1.67" class="j">correct</text></symbol><symbol id="20"><text x="3.006" y="1.67" class="g">Run</text><text x="7.014" y="1.67" class="g">15</text><text x="10.02" y="1.67" class="h">│</text><text x="12.024" y="1.67" class="g">2,401</text><text x="18.036" y="1.67" class="g">tokens</text><text x="25.05" y="1.67" class="h">│</text><text x="27.054" y="1.67" class="g">2</text><text x="29.058" y="1.67" class="g">calls</text><text x="35.07" y="1.67" class="h">│</text><text x="37.074" y="1.67" class="j">✓</text><text x="39.078" y="1.67" class="j">correct</text><text x="48.096" y="1.67" class="i">←</text><text x="50.1" y="1.67" class="i">experience</text><text x="61.122" y="1.67" class="i">reused!</text></symbol><symbol id="21"><text y="1.67" class="f">📊</text><text x="3.006" y="1.67" class="f">Results:</text></symbol><symbol id="22"><text x="3.006" y="1.67" class="g">Experience</text><text x="14.028" y="1.67" class="g">adopted:</text><text x="24.048" y="1.67" class="k">4/15</text><text x="29.058" y="1.67" class="k">runs</text><text x="34.068" y="1.67" class="k">(26.7%)</text></symbol><symbol id="23"><text x="3.006" y="1.67" class="g">Cost</text><text x="8.016" y="1.67" class="g">when</text><text x="13.026" y="1.67" class="g">adopted:</text><text x="24.048" y="1.67" class="l">2,429</text><text x="30.06" y="1.67" class="l">tokens</text><text x="37.074" y="1.67" class="g">(median)</text></symbol><symbol id="24"><text x="3.006" y="1.67" class="g">Cost</text><text x="8.016" y="1.67" class="g">when</text><text x="13.026" y="1.67" class="g">ignored:</text><text x="24.048" y="1.67" class="m">9,693</text><text x="30.06" y="1.67" class="m">tokens</text><text x="37.074" y="1.67" class="g">(median)</text></symbol><symbol id="25"><text x="3.006" y="1.67" class="g">Reduction:</text><text x="24.048" y="1.67" class="l">75.0%</text></symbol><symbol id="26"><text x="3.006" y="1.67" class="g">Correctness:</text><text x="24.048" y="1.67" class="k">15/15</text><text x="30.06" y="1.67" class="k">(100%)</text></symbol><symbol id="27"><text x="3.006" y="1.67" class="g">Saved</text><text x="9.018" y="1.67" class="g">to</text><text x="12.024" y="1.67" class="g">.educe/descent/</text></symbol><symbol id="28"><text x="5.01" y="1.67" class="g">descent_curve.png</text><text x="23.046" y="1.67" class="j">✓</text></symbol><symbol id="29"><text x="5.01" y="1.67" class="g">statistics.json</text><text x="23.046" y="1.67" class="j">✓</text></symbol><symbol id="30"><text y="1.67" class="l">✅</text><text x="2.004" y="1.67" class="l">The</text><text x="6.012" y="1.67" class="l">descent</text><text x="14.028" y="1.67" class="l">mechanism</text><text x="24.048" y="1.67" class="l">works.</text><text x="31.062" y="1.67" class="g">Adoption</text><text x="40.08" y="1.67" class="g">reliability</text><text x="52.104" y="1.67" class="g">is</text><text x="55.11" y="1.67" class="g">the</text><text x="59.118" y="1.67" class="g">open</text><text x="64.128" y="1.67" class="g">frontier.</text></symbol><symbol id="a"><path fill="transparent" d="M0 0h80v31H0z"/></symbol></defs><path class="a" d="M0 0h80v65.13H0z"/><g style="animation-duration:15.225487s;animation-iteration-count:infinite;animation-name:o;animation-timing-function:steps(1,end)"><svg width="2640"><svg><use xlink:href="#a"/></svg><svg x="80"><use xlink:href="#a"/><use xlink:href="#1" y="2.171"/></svg><svg x="160"><use xlink:href="#a"/><use xlink:href="#1" y="2.171"/><use xlink:href="#2" y="4.342"/></svg><svg x="240"><use xlink:href="#a"/><use xlink:href="#1" y="2.171"/><use xlink:href="#2" y="4.342"/><use xlink:href="#3" y="8.684"/></svg><svg x="320"><use xlink:href="#a"/><use xlink:href="#1" y="2.171"/><use xlink:href="#2" y="4.342"/><use xlink:href="#3" y="8.684"/><use xlink:href="#4" y="13.026"/></svg><svg x="400"><use xlink:href="#a"/><use xlink:href="#1" y="2.171"/><use xlink:href="#2" y="4.342"/><use xlink:href="#3" y="8.684"/><use xlink:href="#4" y="13.026"/><use xlink:href="#5" y="15.197"/></svg><svg x="480"><use xlink:href="#a"/><use xlink:href="#1" y="2.171"/><use xlink:href="#2" y="4.342"/><use xlink:href="#3" y="8.684"/><use xlink:href="#4" y="13.026"/><use xlink:href="#5" y="15.197"/><use xlink:href="#6" y="19.539"/></svg><svg x="560"><use xlink:href="#a"/><use xlink:href="#1" y="2.171"/><use xlink:href="#2" y="4.342"/><use xlink:href="#3" y="8.684"/><use xlink:href="#4" y="13.026"/><use xlink:href="#5" y="15.197"/><use xlink:href="#6" y="19.539"/><use xlink:href="#7" y="21.71"/></svg><svg x="640"><use xlink:href="#a"/><use xlink:href="#1" y="2.171"/><use xlink:href="#2" y="4.342"/><use xlink:href="#3" y="8.684"/><use xlink:href="#4" y="13.026"/><use xlink:href="#5" y="15.197"/><use xlink:href="#6" y="19.539"/><use xlink:href="#7" y="21.71"/><use xlink:href="#8" y="23.881"/></svg><svg x="720"><use xlink:href="#a"/><use xlink:href="#1" y="2.171"/><use xlink:href="#2" y="4.342"/><use xlink:href="#3" y="8.684"/><use xlink:href="#4" y="13.026"/><use xlink:href="#5" y="15.197"/><use xlink:href="#6" y="19.539"/><use xlink:href="#7" y="21.71"/><use xlink:href="#8" y="23.881"/><use xlink:href="#9" y="26.052"/></svg><svg x="800"><use xlink:href="#a"/><use xlink:href="#1" y="2.171"/><use xlink:href="#2" y="4.342"/><use xlink:href="#3" y="8.684"/><use xlink:href="#4" y="13.026"/><use xlink:href="#5" y="15.197"/><use xlink:href="#6" y="19.539"/><use xlink:href="#7" y="21.71"/><use xlink:href="#8" y="23.881"/><use xlink:href="#9" y="26.052"/><use xlink:href="#10" y="28.223"/></svg><svg x="880"><use xlink:href="#a"/><use xlink:href="#1" y="2.171"/><use xlink:href="#2" y="4.342"/><use xlink:href="#3" y="8.684"/><use xlink:href="#4" y="13.026"/><use xlink:href="#5" y="15.197"/><use xlink:href="#6" y="19.539"/><use xlink:href="#7" y="21.71"/><use xlink:href="#8" y="23.881"/><use xlink:href="#9" y="26.052"/><use xlink:href="#10" y="28.223"/><use xlink:href="#11" y="30.394"/></svg><svg x="960"><use xlink:href="#a"/><use xlink:href="#1" y="2.171"/><use xlink:href="#2" y="4.342"/><use xlink:href="#3" y="8.684"/><use xlink:href="#4" y="13.026"/><use xlink:href="#5" y="15.197"/><use xlink:href="#6" y="19.539"/><use xlink:href="#7" y="21.71"/><use xlink:href="#8" y="23.881"/><use xlink:href="#9" y="26.052"/><use xlink:href="#10" y="28.223"/><use xlink:href="#11" y="30.394"/><use xlink:href="#12" y="32.565"/></svg><svg x="1040"><use xlink:href="#a"/><use xlink:href="#1" y="2.171"/><use xlink:href="#2" y="4.342"/><use xlink:href="#3" y="8.684"/><use xlink:href="#4" y="13.026"/><use xlink:href="#5" y="15.197"/><use xlink:href="#6" y="19.539"/><use xlink:href="#7" y="21.71"/><use xlink:href="#8" y="23.881"/><use xlink:href="#9" y="26.052"/><use xlink:href="#10" y="28.223"/><use xlink:href="#11" y="30.394"/><use xlink:href="#12" y="32.565"/><use xlink:href="#13" y="34.736"/></svg><svg x="1120"><use xlink:href="#a"/><use xlink:href="#1" y="2.171"/><use xlink:href="#2" y="4.342"/><use xlink:href="#3" y="8.684"/><use xlink:href="#4" y="13.026"/><use xlink:href="#5" y="15.197"/><use xlink:href="#6" y="19.539"/><use xlink:href="#7" y="21.71"/><use xlink:href="#8" y="23.881"/><use xlink:href="#9" y="26.052"/><use xlink:href="#10" y="28.223"/><use xlink:href="#11" y="30.394"/><use xlink:href="#12" y="32.565"/><use xlink:href="#13" y="34.736"/><use xlink:href="#14" y="36.907"/></svg><svg x="1200"><use xlink:href="#a"/><use xlink:href="#1" y="2.171"/><use xlink:href="#2" y="4.342"/><use xlink:href="#3" y="8.684"/><use xlink:href="#4" y="13.026"/><use xlink:href="#5" y="15.197"/><use xlink:href="#6" y="19.539"/><use xlink:href="#7" y="21.71"/><use xlink:href="#8" y="23.881"/><use xlink:href="#9" y="26.052"/><use xlink:href="#10" y="28.223"/><use xlink:href="#11" y="30.394"/><use xlink:href="#12" y="32.565"/><use xlink:href="#13" y="34.736"/><use xlink:href="#14" y="36.907"/><use xlink:href="#15" y="39.078"/></svg><svg x="1280"><use xlink:href="#a"/><use xlink:href="#1" y="2.171"/><use xlink:href="#2" y="4.342"/><use xlink:href="#3" y="8.684"/><use xlink:href="#4" y="13.026"/><use xlink:href="#5" y="15.197"/><use xlink:href="#6" y="19.539"/><use xlink:href="#7" y="21.71"/><use xlink:href="#8" y="23.881"/><use xlink:href="#9" y="26.052"/><use xlink:href="#10" y="28.223"/><use xlink:href="#11" y="30.394"/><use xlink:href="#12" y="32.565"/><use xlink:href="#13" y="34.736"/><use xlink:href="#14" y="36.907"/><use xlink:href="#15" y="39.078"/><use xlink:href="#16" y="41.249"/></svg><svg x="1360"><use xlink:href="#a"/><use xlink:href="#1" y="2.171"/><use xlink:href="#2" y="4.342"/><use xlink:href="#3" y="8.684"/><use xlink:href="#4" y="13.026"/><use xlink:href="#5" y="15.197"/><use xlink:href="#6" y="19.539"/><use xlink:href="#7" y="21.71"/><use xlink:href="#8" y="23.881"/><use xlink:href="#9" y="26.052"/><use xlink:href="#10" y="28.223"/><use xlink:href="#11" y="30.394"/><use xlink:href="#12" y="32.565"/><use xlink:href="#13" y="34.736"/><use xlink:href="#14" y="36.907"/><use xlink:href="#15" y="39.078"/><use xlink:href="#16" y="41.249"/><use xlink:href="#17" y="43.42"/></svg><svg x="1440"><use xlink:href="#a"/><use xlink:href="#1" y="2.171"/><use xlink:href="#2" y="4.342"/><use xlink:href="#3" y="8.684"/><use xlink:href="#4" y="13.026"/><use xlink:href="#5" y="15.197"/><use xlink:href="#6" y="19.539"/><use xlink:href="#7" y="21.71"/><use xlink:href="#8" y="23.881"/><use xlink:href="#9" y="26.052"/><use xlink:href="#10" y="28.223"/><use xlink:href="#11" y="30.394"/><use xlink:href="#12" y="32.565"/><use xlink:href="#13" y="34.736"/><use xlink:href="#14" y="36.907"/><use xlink:href="#15" y="39.078"/><use xlink:href="#16" y="41.249"/><use xlink:href="#17" y="43.42"/><use xlink:href="#18" y="45.591"/></svg><svg x="1520"><use xlink:href="#a"/><use xlink:href="#1" y="2.171"/><use xlink:href="#2" y="4.342"/><use xlink:href="#3" y="8.684"/><use xlink:href="#4" y="13.026"/><use xlink:href="#5" y="15.197"/><use xlink:href="#6" y="19.539"/><use xlink:href="#7" y="21.71"/><use xlink:href="#8" y="23.881"/><use xlink:href="#9" y="26.052"/><use xlink:href="#10" y="28.223"/><use xlink:href="#11" y="30.394"/><use xlink:href="#12" y="32.565"/><use xlink:href="#13" y="34.736"/><use xlink:href="#14" y="36.907"/><use xlink:href="#15" y="39.078"/><use xlink:href="#16" y="41.249"/><use xlink:href="#17" y="43.42"/><use xlink:href="#18" y="45.591"/><use xlink:href="#19" y="47.762"/></svg><svg x="1600"><use xlink:href="#a"/><use xlink:href="#1" y="2.171"/><use xlink:href="#2" y="4.342"/><use xlink:href="#3" y="8.684"/><use xlink:href="#4" y="13.026"/><use xlink:href="#5" y="15.197"/><use xlink:href="#6" y="19.539"/><use xlink:href="#7" y="21.71"/><use xlink:href="#8" y="23.881"/><use xlink:href="#9" y="26.052"/><use xlink:href="#10" y="28.223"/><use xlink:href="#11" y="30.394"/><use xlink:href="#12" y="32.565"/><use xlink:href="#13" y="34.736"/><use xlink:href="#14" y="36.907"/><use xlink:href="#15" y="39.078"/><use xlink:href="#16" y="41.249"/><use xlink:href="#17" y="43.42"/><use xlink:href="#18" y="45.591"/><use xlink:href="#19" y="47.762"/><use xlink:href="#20" y="49.933"/></svg><svg x="1680"><use xlink:href="#a"/><use xlink:href="#1" y="2.171"/><use xlink:href="#2" y="4.342"/><use xlink:href="#3" y="8.684"/><use xlink:href="#4" y="13.026"/><use xlink:href="#5" y="15.197"/><use xlink:href="#6" y="19.539"/><use xlink:href="#7" y="21.71"/><use xlink:href="#8" y="23.881"/><use xlink:href="#9" y="26.052"/><use xlink:href="#10" y="28.223"/><use xlink:href="#11" y="30.394"/><use xlink:href="#12" y="32.565"/><use xlink:href="#13" y="34.736"/><use xlink:href="#14" y="36.907"/><use xlink:href="#15" y="39.078"/><use xlink:href="#16" y="41.249"/><use xlink:href="#17" y="43.42"/><use xlink:href="#18" y="45.591"/><use xlink:href="#19" y="47.762"/><use xlink:href="#20" y="49.933"/><use xlink:href="#3" y="54.275"/></svg><svg x="1760"><use xlink:href="#a"/><use xlink:href="#1" y="2.171"/><use xlink:href="#2" y="4.342"/><use xlink:href="#3" y="8.684"/><use xlink:href="#4" y="13.026"/><use xlink:href="#5" y="15.197"/><use xlink:href="#6" y="19.539"/><use xlink:href="#7" y="21.71"/><use xlink:href="#8" y="23.881"/><use xlink:href="#9" y="26.052"/><use xlink:href="#10" y="28.223"/><use xlink:href="#11" y="30.394"/><use xlink:href="#12" y="32.565"/><use xlink:href="#13" y="34.736"/><use xlink:href="#14" y="36.907"/><use xlink:href="#15" y="39.078"/><use xlink:href="#16" y="41.249"/><use xlink:href="#17" y="43.42"/><use xlink:href="#18" y="45.591"/><use xlink:href="#19" y="47.762"/><use xlink:href="#20" y="49.933"/><use xlink:href="#3" y="54.275"/><use xlink:href="#21" y="58.617"/></svg><svg x="1840"><use xlink:href="#a"/><use xlink:href="#1" y="2.171"/><use xlink:href="#2" y="4.342"/><use xlink:href="#3" y="8.684"/><use xlink:href="#4" y="13.026"/><use xlink:href="#5" y="15.197"/><use xlink:href="#6" y="19.539"/><use xlink:href="#7" y="21.71"/><use xlink:href="#8" y="23.881"/><use xlink:href="#9" y="26.052"/><use xlink:href="#10" y="28.223"/><use xlink:href="#11" y="30.394"/><use xlink:href="#12" y="32.565"/><use xlink:href="#13" y="34.736"/><use xlink:href="#14" y="36.907"/><use xlink:href="#15" y="39.078"/><use xlink:href="#16" y="41.249"/><use xlink:href="#17" y="43.42"/><use xlink:href="#18" y="45.591"/><use xlink:href="#19" y="47.762"/><use xlink:href="#20" y="49.933"/><use xlink:href="#3" y="54.275"/><use xlink:href="#21" y="58.617"/><use xlink:href="#22" y="60.788"/></svg><svg x="1920"><use xlink:href="#a"/><use xlink:href="#1" y="2.171"/><use xlink:href="#2" y="4.342"/><use xlink:href="#3" y="8.684"/><use xlink:href="#4" y="13.026"/><use xlink:href="#5" y="15.197"/><use xlink:href="#6" y="19.539"/><use xlink:href="#7" y="21.71"/><use xlink:href="#8" y="23.881"/><use xlink:href="#9" y="26.052"/><use xlink:href="#10" y="28.223"/><use xlink:href="#11" y="30.394"/><use xlink:href="#12" y="32.565"/><use xlink:href="#13" y="34.736"/><use xlink:href="#14" y="36.907"/><use xlink:href="#15" y="39.078"/><use xlink:href="#16" y="41.249"/><use xlink:href="#17" y="43.42"/><use xlink:href="#18" y="45.591"/><use xlink:href="#19" y="47.762"/><use xlink:href="#20" y="49.933"/><use xlink:href="#3" y="54.275"/><use xlink:href="#21" y="58.617"/><use xlink:href="#22" y="60.788"/><use xlink:href="#23" y="62.959"/></svg><svg x="2000"><use xlink:href="#a"/><use xlink:href="#1"/><use xlink:href="#2" y="2.171"/><use xlink:href="#3" y="6.513"/><use xlink:href="#4" y="10.855"/><use xlink:href="#5" y="13.026"/><use xlink:href="#6" y="17.368"/><use xlink:href="#7" y="19.539"/><use xlink:href="#8" y="21.71"/><use xlink:href="#9" y="23.881"/><use xlink:href="#10" y="26.052"/><use xlink:href="#11" y="28.223"/><use xlink:href="#12" y="30.394"/><use xlink:href="#13" y="32.565"/><use xlink:href="#14" y="34.736"/><use xlink:href="#15" y="36.907"/><use xlink:href="#16" y="39.078"/><use xlink:href="#17" y="41.249"/><use xlink:href="#18" y="43.42"/><use xlink:href="#19" y="45.591"/><use xlink:href="#20" y="47.762"/><use xlink:href="#3" y="52.104"/><use xlink:href="#21" y="56.446"/><use xlink:href="#22" y="58.617"/><use xlink:href="#23" y="60.788"/><use xlink:href="#24" y="62.959"/></svg><svg x="2080"><use xlink:href="#a"/><use xlink:href="#2"/><use xlink:href="#3" y="4.342"/><use xlink:href="#4" y="8.684"/><use xlink:href="#5" y="10.855"/><use xlink:href="#6" y="15.197"/><use xlink:href="#7" y="17.368"/><use xlink:href="#8" y="19.539"/><use xlink:href="#9" y="21.71"/><use xlink:href="#10" y="23.881"/><use xlink:href="#11" y="26.052"/><use xlink:href="#12" y="28.223"/><use xlink:href="#13" y="30.394"/><use xlink:href="#14" y="32.565"/><use xlink:href="#15" y="34.736"/><use xlink:href="#16" y="36.907"/><use xlink:href="#17" y="39.078"/><use xlink:href="#18" y="41.249"/><use xlink:href="#19" y="43.42"/><use xlink:href="#20" y="45.591"/><use xlink:href="#3" y="49.933"/><use xlink:href="#21" y="54.275"/><use xlink:href="#22" y="56.446"/><use xlink:href="#23" y="58.617"/><use xlink:href="#24" y="60.788"/><use xlink:href="#25" y="62.959"/></svg><svg x="2160"><use xlink:href="#a"/><use xlink:href="#3" y="2.171"/><use xlink:href="#4" y="6.513"/><use xlink:href="#5" y="8.684"/><use xlink:href="#6" y="13.026"/><use xlink:href="#7" y="15.197"/><use xlink:href="#8" y="17.368"/><use xlink:href="#9" y="19.539"/><use xlink:href="#10" y="21.71"/><use xlink:href="#11" y="23.881"/><use xlink:href="#12" y="26.052"/><use xlink:href="#13" y="28.223"/><use xlink:href="#14" y="30.394"/><use xlink:href="#15" y="32.565"/><use xlink:href="#16" y="34.736"/><use xlink:href="#17" y="36.907"/><use xlink:href="#18" y="39.078"/><use xlink:href="#19" y="41.249"/><use xlink:href="#20" y="43.42"/><use xlink:href="#3" y="47.762"/><use xlink:href="#21" y="52.104"/><use xlink:href="#22" y="54.275"/><use xlink:href="#23" y="56.446"/><use xlink:href="#24" y="58.617"/><use xlink:href="#25" y="60.788"/><use xlink:href="#26" y="62.959"/></svg><svg x="2240"><use xlink:href="#a"/><use xlink:href="#4" y="2.171"/><use xlink:href="#5" y="4.342"/><use xlink:href="#6" y="8.684"/><use xlink:href="#7" y="10.855"/><use xlink:href="#8" y="13.026"/><use xlink:href="#9" y="15.197"/><use xlink:href="#10" y="17.368"/><use xlink:href="#11" y="19.539"/><use xlink:href="#12" y="21.71"/><use xlink:href="#13" y="23.881"/><use xlink:href="#14" y="26.052"/><use xlink:href="#15" y="28.223"/><use xlink:href="#16" y="30.394"/><use xlink:href="#17" y="32.565"/><use xlink:href="#18" y="34.736"/><use xlink:href="#19" y="36.907"/><use xlink:href="#20" y="39.078"/><use xlink:href="#3" y="43.42"/><use xlink:href="#21" y="47.762"/><use xlink:href="#22" y="49.933"/><use xlink:href="#23" y="52.104"/><use xlink:href="#24" y="54.275"/><use xlink:href="#25" y="56.446"/><use xlink:href="#26" y="58.617"/><use xlink:href="#27" y="62.959"/></svg><svg x="2320"><use xlink:href="#a"/><use xlink:href="#4"/><use xlink:href="#5" y="2.171"/><use xlink:href="#6" y="6.513"/><use xlink:href="#7" y="8.684"/><use xlink:href="#8" y="10.855"/><use xlink:href="#9" y="13.026"/><use xlink:href="#10" y="15.197"/><use xlink:href="#11" y="17.368"/><use xlink:href="#12" y="19.539"/><use xlink:href="#13" y="21.71"/><use xlink:href="#14" y="23.881"/><use xlink:href="#15" y="26.052"/><use xlink:href="#16" y="28.223"/><use xlink:href="#17" y="30.394"/><use xlink:href="#18" y="32.565"/><use xlink:href="#19" y="34.736"/><use xlink:href="#20" y="36.907"/><use xlink:href="#3" y="41.249"/><use xlink:href="#21" y="45.591"/><use xlink:href="#22" y="47.762"/><use xlink:href="#23" y="49.933"/><use xlink:href="#24" y="52.104"/><use xlink:href="#25" y="54.275"/><use xlink:href="#26" y="56.446"/><use xlink:href="#27" y="60.788"/><use xlink:href="#28" y="62.959"/></svg><svg x="2400"><use xlink:href="#a"/><use xlink:href="#5"/><use xlink:href="#6" y="4.342"/><use xlink:href="#7" y="6.513"/><use xlink:href="#8" y="8.684"/><use xlink:href="#9" y="10.855"/><use xlink:href="#10" y="13.026"/><use xlink:href="#11" y="15.197"/><use xlink:href="#12" y="17.368"/><use xlink:href="#13" y="19.539"/><use xlink:href="#14" y="21.71"/><use xlink:href="#15" y="23.881"/><use xlink:href="#16" y="26.052"/><use xlink:href="#17" y="28.223"/><use xlink:href="#18" y="30.394"/><use xlink:href="#19" y="32.565"/><use xlink:href="#20" y="34.736"/><use xlink:href="#3" y="39.078"/><use xlink:href="#21" y="43.42"/><use xlink:href="#22" y="45.591"/><use xlink:href="#23" y="47.762"/><use xlink:href="#24" y="49.933"/><use xlink:href="#25" y="52.104"/><use xlink:href="#26" y="54.275"/><use xlink:href="#27" y="58.617"/><use xlink:href="#28" y="60.788"/><use xlink:href="#29" y="62.959"/></svg><svg x="2480"><use xlink:href="#a"/><use xlink:href="#6"/><use xlink:href="#7" y="2.171"/><use xlink:href="#8" y="4.342"/><use xlink:href="#9" y="6.513"/><use xlink:href="#10" y="8.684"/><use xlink:href="#11" y="10.855"/><use xlink:href="#12" y="13.026"/><use xlink:href="#13" y="15.197"/><use xlink:href="#14" y="17.368"/><use xlink:href="#15" y="19.539"/><use xlink:href="#16" y="21.71"/><use xlink:href="#17" y="23.881"/><use xlink:href="#18" y="26.052"/><use xlink:href="#19" y="28.223"/><use xlink:href="#20" y="30.394"/><use xlink:href="#3" y="34.736"/><use xlink:href="#21" y="39.078"/><use xlink:href="#22" y="41.249"/><use xlink:href="#23" y="43.42"/><use xlink:href="#24" y="45.591"/><use xlink:href="#25" y="47.762"/><use xlink:href="#26" y="49.933"/><use xlink:href="#27" y="54.275"/><use xlink:href="#28" y="56.446"/><use xlink:href="#29" y="58.617"/><use xlink:href="#30" y="62.959"/></svg><svg x="2560"><use xlink:href="#a"/><use xlink:href="#7"/><use xlink:href="#8" y="2.171"/><use xlink:href="#9" y="4.342"/><use xlink:href="#10" y="6.513"/><use xlink:href="#11" y="8.684"/><use xlink:href="#12" y="10.855"/><use xlink:href="#13" y="13.026"/><use xlink:href="#14" y="15.197"/><use xlink:href="#15" y="17.368"/><use xlink:href="#16" y="19.539"/><use xlink:href="#17" y="21.71"/><use xlink:href="#18" y="23.881"/><use xlink:href="#19" y="26.052"/><use xlink:href="#20" y="28.223"/><use xlink:href="#3" y="32.565"/><use xlink:href="#21" y="36.907"/><use xlink:href="#22" y="39.078"/><use xlink:href="#23" y="41.249"/><use xlink:href="#24" y="43.42"/><use xlink:href="#25" y="45.591"/><use xlink:href="#26" y="47.762"/><use xlink:href="#27" y="52.104"/><use xlink:href="#28" y="54.275"/><use xlink:href="#29" y="56.446"/><use xlink:href="#30" y="60.788"/></svg></svg></g></g></svg></svg>